<?xml version="1.0"?>
<svg xmlns="http://www.w3.org/2000/svg" viewBox="-44 0 512 512" width="512px" height="512px"><path d="m351.667969 151.457031c-.179688-3.949219-3.53125-7.175781-7.496094-7.175781h-56.609375v-104.703125c0-21.824219-17.753906-39.578125-39.578125-39.578125h-208.40625c-21.824219 0-39.578125 17.753906-39.578125 39.578125v73.140625c0 4.152344 3.363281 7.515625 7.515625 7.515625 4.148437 0 7.515625-3.363281 7.515625-7.515625v-41.578125h257.5v73.140625h-168.828125c-4.082031 0-7.515625 3.433594-7.515625 7.515625v256.5c0 6.539063 8.1875 9.953125 12.828125 5.3125l69.941406-69.9375h93.574219v89.171875h-257.5v-284.722656c0-4.148438-3.367188-7.511719-7.515625-7.511719-4.152344 0-7.515625 3.363281-7.515625 7.511719v324.300781c0 21.824219 17.753906 39.578125 39.578125 39.578125h208.40625c21.824219 0 39.578125-17.753906 39.578125-39.578125v-128.75h56.609375c4.152344 0 7.515625-3.363281 7.515625-7.515625v-184.359375c-.007812-.113281-.011719-.226563-.019531-.339844zm-336.636719-95.347656v-16.53125c0-13.535156 11.007812-24.546875 24.546875-24.546875h208.40625c13.535156 0 24.546875 11.011719 24.546875 24.546875v16.53125zm232.953125 440.859375h-208.40625c-13.539063 0-24.546875-11.011719-24.546875-24.546875v-24.546875h257.5v24.546875c0 13.535156-11.011719 24.546875-24.546875 24.546875zm74.765625-337.65625-98.8125 79.050781-98.8125-79.050781zm13.90625 8.121094v129.847656l-84.683594-62.101562zm-225.4375 0 84.683594 67.746094-84.683594 62.101562zm64.625 161.207031c-1.992188 0-3.902344.792969-5.316406 2.203125l-59.308594 59.3125v-74.238281l96.835938-71.015625 11.1875 8.949218c2.714843 2.171876 6.675781 2.171876 9.390624 0l11.1875-8.949218 96.835938 71.015625v12.722656zm0 0" fill="#27aae1"/><path d="m151.796875 32.0625h-16.03125c-4.152344 0-7.515625 3.363281-7.515625 7.515625 0 4.148437 3.363281 7.515625 7.515625 7.515625h16.03125c4.152344 0 7.515625-3.367188 7.515625-7.515625 0-4.152344-3.363281-7.515625-7.515625-7.515625zm0 0" fill="#27aae1"/><path d="m191.875 32.0625h-8.015625c-4.152344 0-7.515625 3.363281-7.515625 7.515625 0 4.148437 3.363281 7.515625 7.515625 7.515625h8.015625c4.152344 0 7.515625-3.367188 7.515625-7.515625 0-4.152344-3.363281-7.515625-7.515625-7.515625zm0 0" fill="#27aae1"/><path d="m103.703125 32.0625h-8.015625c-4.152344 0-7.515625 3.363281-7.515625 7.515625 0 4.148437 3.363281 7.515625 7.515625 7.515625h8.015625c4.152344 0 7.515625-3.367188 7.515625-7.515625 0-4.152344-3.363281-7.515625-7.515625-7.515625zm0 0" fill="#27aae1"/><path d="m159.8125 464.90625h-32.0625c-4.152344 0-7.515625 3.367188-7.515625 7.515625 0 4.152344 3.363281 7.515625 7.515625 7.515625h32.0625c4.152344 0 7.515625-3.363281 7.515625-7.515625 0-4.148437-3.363281-7.515625-7.515625-7.515625zm0 0" fill="#27aae1"/><path d="m344.171875 96.1875c-4.152344 0-7.515625 3.363281-7.515625 7.515625 0 4.148437 3.363281 7.515625 7.515625 7.515625 22.375 0 40.578125 18.203125 40.578125 40.578125 0 4.148437 3.363281 7.515625 7.515625 7.515625s7.515625-3.367188 7.515625-7.515625c0-30.664063-24.945312-55.609375-55.609375-55.609375zm0 0" fill="#27aae1"/><path d="m376.234375 72.140625c-4.152344 0-7.515625 3.363281-7.515625 7.515625 0 4.148438 3.363281 7.515625 7.515625 7.515625 17.957031 0 32.5625 14.605469 32.5625 32.5625 0 4.148437 3.363281 7.515625 7.515625 7.515625s7.515625-3.367188 7.515625-7.515625c0-26.242187-21.351563-47.59375-47.59375-47.59375zm0 0" fill="#27aae1"/></svg>
