<?xml version="1.0"?>
<svg xmlns="http://www.w3.org/2000/svg" viewBox="-112 0 512 512" width="512px" height="512px"><path d="m247.984375 0h-208.40625c-21.824219 0-39.578125 17.753906-39.578125 39.578125v432.84375c0 21.824219 17.753906 39.578125 39.578125 39.578125h208.40625c21.824219 0 39.578125-17.753906 39.578125-39.578125v-308.269531c0-4.148438-3.363281-7.511719-7.515625-7.511719s-7.515625 3.363281-7.515625 7.511719v268.691406h-257.5v-361.703125h257.5v57.609375c0 4.152344 3.363281 7.515625 7.515625 7.515625s7.515625-3.363281 7.515625-7.515625v-89.171875c0-21.824219-17.753906-39.578125-39.578125-39.578125zm24.546875 447.875v24.546875c0 13.535156-11.011719 24.546875-24.546875 24.546875h-208.40625c-13.539063 0-24.546875-11.011719-24.546875-24.546875v-24.546875zm-257.5-391.765625v-16.53125c0-13.535156 11.007812-24.546875 24.546875-24.546875h208.40625c13.535156 0 24.546875 11.011719 24.546875 24.546875v16.53125zm0 0" fill="#27aae1"/><path d="m151.796875 32.0625h-16.03125c-4.152344 0-7.515625 3.363281-7.515625 7.515625 0 4.148437 3.363281 7.515625 7.515625 7.515625h16.03125c4.152344 0 7.515625-3.367188 7.515625-7.515625 0-4.152344-3.363281-7.515625-7.515625-7.515625zm0 0" fill="#27aae1"/><path d="m191.875 32.0625h-8.015625c-4.152344 0-7.515625 3.363281-7.515625 7.515625 0 4.148437 3.363281 7.515625 7.515625 7.515625h8.015625c4.152344 0 7.515625-3.367188 7.515625-7.515625 0-4.152344-3.363281-7.515625-7.515625-7.515625zm0 0" fill="#27aae1"/><path d="m103.703125 32.0625h-8.015625c-4.152344 0-7.515625 3.363281-7.515625 7.515625 0 4.148437 3.363281 7.515625 7.515625 7.515625h8.015625c4.152344 0 7.515625-3.367188 7.515625-7.515625 0-4.152344-3.363281-7.515625-7.515625-7.515625zm0 0" fill="#27aae1"/><path d="m127.75 479.9375h32.0625c4.152344 0 7.515625-3.363281 7.515625-7.515625 0-4.148437-3.363281-7.515625-7.515625-7.515625h-32.0625c-4.152344 0-7.515625 3.367188-7.515625 7.515625 0 4.152344 3.363281 7.515625 7.515625 7.515625zm0 0" fill="#27aae1"/><path d="m200.351562 144.285156c-28.316406-.234375-51.84375 20.824219-55.546874 48.089844h-97.210938c-4.132812 0-7.515625 3.382812-7.515625 7.515625v144.28125c0 4.152344 3.363281 7.515625 7.515625 7.515625h192.375c4.148438 0 7.515625-3.363281 7.515625-7.515625v-114.222656c0-.398438-.042969-.785157-.101563-1.164063 5.421876-8.875 8.429688-19.382812 8.089844-30.601562-.890625-29.652344-25.453125-53.65625-55.121094-53.898438zm-.460937 111.214844c12.15625 0 23.402344-3.933594 32.5625-10.574219v60.171875l-60.117187-45.089844 9.875-7.40625c5.558593 1.871094 11.5 2.898438 17.679687 2.898438zm-3.703125-96.023438c25.28125-2.253906 46.371094 18.839844 44.117188 44.117188-1.730469 19.378906-17.335938 34.984375-36.714844 36.710938-25.277344 2.253906-46.367188-18.839844-44.113282-44.117188 1.726563-19.378906 17.332032-34.984375 36.710938-36.710938zm-51.382812 47.929688c2.089843 15.40625 10.511718 28.824219 22.558593 37.546875l-23.582031 17.683594-73.644531-55.230469zm-89.695313 7.511719 60.117187 45.089843-60.117187 45.089844zm177.34375 121.738281h-177.34375v-12.773438l72.640625-54.480468 11.523438 8.640625c2.351562 1.765625 5.621093 1.984375 8.1875.542969.808593-.457032 1.542968-1.078126 2.28125-1.632813 2.613281-1.957031 5.222656-3.914063 7.832031-5.871094.746093-.5625 1.492187-1.121093 2.238281-1.679687l72.640625 54.480468zm0 0" fill="#27aae1"/><path d="m199.890625 207.40625c4.152344 0 7.515625-3.367188 7.515625-7.515625v-24.046875c0-4.152344-3.363281-7.515625-7.515625-7.515625s-7.515625 3.363281-7.515625 7.515625v24.046875c0 4.148437 3.363281 7.515625 7.515625 7.515625zm0 0" fill="#27aae1"/><path d="m207.40625 223.9375c0 4.148438-3.367188 7.515625-7.515625 7.515625-4.152344 0-7.515625-3.367187-7.515625-7.515625s3.363281-7.515625 7.515625-7.515625c4.148437 0 7.515625 3.367187 7.515625 7.515625zm0 0" fill="#27aae1"/></svg>
