<?xml version="1.0"?>
<svg xmlns="http://www.w3.org/2000/svg" height="512px" viewBox="0 -16 480 480" width="512px"><path d="m472 160h-56v-152c0-4.417969-3.582031-8-8-8h-400c-4.417969 0-8 3.582031-8 8v240c0 4.417969 3.582031 8 8 8h24v88c0 3.367188 2.109375 6.371094 5.277344 7.519531 3.164062 1.144531 6.710937.1875 8.867187-2.398437l77.597657-93.121094h36.257812v104c0 4.417969 3.582031 8 8 8h188.6875l77.65625 77.65625c2.289062 2.285156 5.730469 2.972656 8.71875 1.734375s4.9375-4.15625 4.9375-7.390625v-72h24c4.417969 0 8-3.582031 8-8v-192c0-4.417969-3.582031-8-8-8zm-352 80c-2.375 0-4.625 1.054688-6.144531 2.878906l-65.855469 79.023438v-73.902344c0-4.417969-3.582031-8-8-8h-24v-224h384v144h-232c-4.417969 0-8 3.582031-8 8v72zm344 112h-24c-4.417969 0-8 3.582031-8 8v60.6875l-66.34375-66.34375c-1.5-1.5-3.535156-2.34375-5.65625-2.34375h-184v-176h288zm0 0" fill="#27aae1"/><path d="m48 56h48c4.417969 0 8-3.582031 8-8s-3.582031-8-8-8h-48c-4.417969 0-8 3.582031-8 8s3.582031 8 8 8zm0 0" fill="#27aae1"/><path d="m128 56h240c4.417969 0 8-3.582031 8-8s-3.582031-8-8-8h-240c-4.417969 0-8 3.582031-8 8s3.582031 8 8 8zm0 0" fill="#27aae1"/><path d="m48 96h320c4.417969 0 8-3.582031 8-8s-3.582031-8-8-8h-320c-4.417969 0-8 3.582031-8 8s3.582031 8 8 8zm0 0" fill="#27aae1"/><path d="m376 128c0-4.417969-3.582031-8-8-8h-320c-4.417969 0-8 3.582031-8 8s3.582031 8 8 8h320c4.417969 0 8-3.582031 8-8zm0 0" fill="#27aae1"/><path d="m208 216h40c4.417969 0 8-3.582031 8-8s-3.582031-8-8-8h-40c-4.417969 0-8 3.582031-8 8s3.582031 8 8 8zm0 0" fill="#27aae1"/><path d="m272 208c0 4.417969 3.582031 8 8 8h152c4.417969 0 8-3.582031 8-8s-3.582031-8-8-8h-152c-4.417969 0-8 3.582031-8 8zm0 0" fill="#27aae1"/><path d="m432 240h-224c-4.417969 0-8 3.582031-8 8s3.582031 8 8 8h224c4.417969 0 8-3.582031 8-8s-3.582031-8-8-8zm0 0" fill="#27aae1"/><path d="m432 280h-224c-4.417969 0-8 3.582031-8 8s3.582031 8 8 8h224c4.417969 0 8-3.582031 8-8s-3.582031-8-8-8zm0 0" fill="#27aae1"/></svg>
