<svg xmlns="http://www.w3.org/2000/svg" viewBox="0 0 762 217.101"><defs><style>.a{fill:#fff;font-size:119px;font-family:Roboto-Black, Roboto;font-weight:800;}.b,.c{fill:#f1da24;}.b{font-size:41px;font-family:Roboto-Regular, Roboto;}</style></defs><g transform="translate(-2198.099 7645.852)"><text class="a" transform="translate(2198.099 -7532.852)"><tspan x="0" y="0">Happy returns</tspan></text><text class="b" transform="translate(2324.639 -7449.964)"><tspan x="0" y="0">Powered by</tspan></text><g transform="translate(2563.207 -7499.904)"><g transform="translate(50.663 12.666)"><path class="c" d="M88.454,19.449a9.772,9.772,0,0,0-4.84-1.049,9.369,9.369,0,0,0-4.84,1.049,6.6,6.6,0,0,0-2.9,3.711l-13.069,33h7.18l4.84-12.262H92l4.6,12.262h7.18l-12.5-33A7.161,7.161,0,0,0,88.454,19.449ZM76.676,39.133l5.082-12.827a1.99,1.99,0,0,1,1.855-1.291,1.725,1.725,0,0,1,1.775,1.291l4.84,12.827Z" transform="translate(-62.8 -16.222)"/><path class="c" d="M151.063,51.734a1.811,1.811,0,0,1-2.017,1.855,1.94,1.94,0,0,1-2.178-1.613L143,34.389a7.787,7.787,0,0,0-2.5-4.437,8.281,8.281,0,0,0-5.244-1.452,8.955,8.955,0,0,0-5.405,1.452,7,7,0,0,0-2.582,4.437L123.15,51.976a3.038,3.038,0,0,1-.726,1.21,2.4,2.4,0,0,1-1.452.4,2.054,2.054,0,0,1-1.533-.484,2.37,2.37,0,0,1-.565-1.371l-2.582-22.669H110l2.985,22.992a13.629,13.629,0,0,0,.726,2.743,6.309,6.309,0,0,0,1.371,2.1,6.648,6.648,0,0,0,2.34,1.371,10.9,10.9,0,0,0,3.469.484A8.791,8.791,0,0,0,126.3,57.3a7.662,7.662,0,0,0,2.662-4.518l4.114-17.667a1.946,1.946,0,0,1,2.178-1.452,2.308,2.308,0,0,1,1.371.323,1.428,1.428,0,0,1,.726,1.129l3.872,17.667a7.51,7.51,0,0,0,2.5,4.518,8.281,8.281,0,0,0,5.244,1.452c2.662,0,4.6-.645,5.808-1.855a8.575,8.575,0,0,0,2.34-4.84l3.227-22.992h-6.293Z" transform="translate(-71.922 -18.174)"/><path class="c" d="M200.564,31.943a7.851,7.851,0,0,0-3.146-2.017,13.1,13.1,0,0,0-4.6-.726H175.394v5.647h17.345a4.709,4.709,0,0,1,3.469,1.129,4.349,4.349,0,0,1,1.049,2.824v2.178h-13.8a15.587,15.587,0,0,0-4.6.565,8.7,8.7,0,0,0-2.985,1.613,7.193,7.193,0,0,0-1.694,2.582,11.8,11.8,0,0,0-.484,3.55,8.749,8.749,0,0,0,2.259,6.454c1.533,1.613,4.034,2.34,7.422,2.34h13.553a10.542,10.542,0,0,0,2.985-.323,4.155,4.155,0,0,0,1.856-1.049,4.1,4.1,0,0,0,.887-1.775,12.488,12.488,0,0,0,.242-2.662V38.8a11.662,11.662,0,0,0-.565-3.792A7.313,7.313,0,0,0,200.564,31.943Zm-3.388,19.2c0,.968-.565,1.452-1.613,1.452H183.381a4.321,4.321,0,0,1-3.146-.968,3.531,3.531,0,0,1-.968-2.582,3.222,3.222,0,0,1,.968-2.5,4.822,4.822,0,0,1,3.227-.887h13.714Z" transform="translate(-84.233 -18.309)"/><path class="c" d="M215.375,31.3c-1.21,1.371-1.775,3.469-1.775,6.454V58.323h5.808V38.558c0-2.5,1.21-3.711,3.711-3.711h10.246V29.2h-11.94C218.6,29.2,216.585,29.926,215.375,31.3Z" transform="translate(-91.944 -18.309)"/><path class="c" d="M260.5,46.464c3.55,0,6.05-.726,7.583-2.178a8.168,8.168,0,0,0,2.259-6.212,8.857,8.857,0,0,0-2.34-6.535c-1.533-1.533-4.034-2.34-7.5-2.34h-9.439a13.259,13.259,0,0,0-4.679.726,7.85,7.85,0,0,0-3.146,2.017,7.312,7.312,0,0,0-1.775,3.066A11.663,11.663,0,0,0,240.9,38.8v9.923a11.339,11.339,0,0,0,.565,3.792A7.951,7.951,0,0,0,243.24,55.5a7.851,7.851,0,0,0,3.146,2.017,13.26,13.26,0,0,0,4.679.726h17.748V52.6H251.065a4.709,4.709,0,0,1-3.469-1.129,4.252,4.252,0,0,1-1.049-2.9v-2.1Zm-13.8-7.583a3.834,3.834,0,0,1,1.049-2.824c.645-.807,1.856-1.129,3.469-1.129h9.358a4.321,4.321,0,0,1,3.146.968,3.6,3.6,0,0,1,.968,2.662,3.222,3.222,0,0,1-.968,2.5,4.63,4.63,0,0,1-3.308.968H246.789V38.881Z" transform="translate(-97.221 -18.309)"/><rect class="c" width="5.808" height="29.042" transform="translate(176.755 10.891)"/><rect class="c" width="5.889" height="6.777" transform="translate(176.755)"/><path class="c" d="M323.039,35.008a8.282,8.282,0,0,0-1.775-3.066,7.85,7.85,0,0,0-3.146-2.017,13.1,13.1,0,0,0-4.6-.726H296.094v5.647h17.345a4.709,4.709,0,0,1,3.469,1.129,4.349,4.349,0,0,1,1.049,2.824v2.178h-13.8a15.587,15.587,0,0,0-4.6.565,8.7,8.7,0,0,0-2.985,1.613,7.193,7.193,0,0,0-1.694,2.582,11.8,11.8,0,0,0-.484,3.55,8.749,8.749,0,0,0,2.259,6.454c1.533,1.613,4.034,2.34,7.422,2.34h13.553a10.541,10.541,0,0,0,2.985-.323,4.154,4.154,0,0,0,1.855-1.049,4.1,4.1,0,0,0,.887-1.775,12.484,12.484,0,0,0,.242-2.662V38.8A11.66,11.66,0,0,0,323.039,35.008Zm-5.163,16.135c0,.968-.565,1.452-1.614,1.452H304.081a4.321,4.321,0,0,1-3.146-.968,3.532,3.532,0,0,1-.968-2.582,3.222,3.222,0,0,1,.968-2.5,4.822,4.822,0,0,1,3.227-.887h13.715Z" transform="translate(-107.56 -18.309)"/></g><rect class="c" width="1.775" height="1.775" transform="translate(26.3 4.598)"/><path class="c" d="M31.244,11.294v.323c.081,0,.161.081.242.081a11.429,11.429,0,0,1,1.452.645h.081V11.294h1.775v1.775H34.31c.161.081.242.161.4.242a9.993,9.993,0,0,1,1.775,1.452A13.675,13.675,0,0,1,38.263,16.7l.081.081.081.161c.081.161.242.323.323.484a12.23,12.23,0,0,1,1.452,2.9V9.519h6.051a23.365,23.365,0,0,0-2.743-2.9h0a.112.112,0,0,0,0-.161.079.079,0,0,0-.081-.081h0A17.958,17.958,0,0,0,41.49,4.84h0l-.081-.081a25.656,25.656,0,0,0-6.615-3.388h0c-.081,0-.081,0-.161-.081l-.726-.242c-.081,0-.161-.081-.242-.081h0A22.726,22.726,0,0,0,31.163.4V.968H29.389V.161A12.036,12.036,0,0,0,27.694,0H25.678a9.931,9.931,0,0,0-1.613.161.727.727,0,0,0-.4.081c-.4.081-.807.081-1.21.161h-.161c-1.21.242-2.42.565-3.63.887h0c-.081,0-.161.081-.242.081-.4.081-.645.242-.968.323-.242.081-.4.161-.645.242h0a16.124,16.124,0,0,0-1.694.807h-.081A25.507,25.507,0,0,0,6.8,9.439h6.373V19.523c.081-.242.242-.484.323-.726a4.79,4.79,0,0,1,.323-.645,7.094,7.094,0,0,0,.484-.807v-.081c.081-.081.081-.161.161-.242s.161-.242.242-.323l.242-.242c.161-.161.242-.323.4-.484a2.139,2.139,0,0,0,.4-.484l.484-.484.081-.081.081-.081H14.867V9.519h5.324v2.743h.081a.282.282,0,0,0,.161-.081,2.866,2.866,0,0,0,.726-.323,5.559,5.559,0,0,1,.645-.242l.726-.242c.161,0,.242-.081.4-.161h-.645V9.439h1.775v1.613c.161,0,.323-.081.484-.081h.726c.4,0,.887-.081,1.291-.081h1.049V9.439h3.55v1.855Zm7.18,1.775H36.649V11.294h1.775Zm-1.855-6.7h1.775V4.6h1.775V6.373h1.775V8.148H40.118V6.373H38.343V8.148H36.568ZM31.163,8.148V6.373H29.389V8.148h-3.55V4.6H24.064v3.55H22.289V6.373H18.74V4.6H16.965V6.373H13.254V8.148H11.479V6.373h1.775V4.6H16.8V2.743h5.324V.968H23.9V2.743h1.775V.968h1.775V2.743h1.775V4.518h1.936V2.743h1.775V4.518h1.775V6.293h0V8.067h-3.55Z" transform="translate(-1.314)"/><rect class="c" width="1.775" height="1.775" transform="translate(20.894 2.743)"/><path class="c" d="M19.3,14v3.308c.081-.081.161-.081.161-.161.161-.161.4-.323.565-.484.161-.081.323-.242.484-.323a2.83,2.83,0,0,1,.645-.4c.081,0,.081-.081.161-.081h-.242V14Z" transform="translate(-3.73 -2.706)"/><path class="c" d="M5.05,22.955h5.324V14H4.566c-.4.565-.726,1.21-1.129,1.775H8.6V21.1H3.275V16.017a27.241,27.241,0,0,0-1.775,4.2v2.662H5.05Z" transform="translate(-0.29 -2.706)"/><path class="c" d="M52.275,13.981H50.5v8.874h8.874V21.08a28.577,28.577,0,0,0-1.775-4.6V21H52.275V15.675H57.2A13.265,13.265,0,0,0,56.066,13.9H52.275Z" transform="translate(-9.76 -2.686)"/><path class="c" d="M22.549,47.245A7.367,7.367,0,0,1,21.5,46.6h0v.565h1.049Z" transform="translate(-4.155 -9.006)"/><path class="c" d="M3.642,45.745V45.1H3.4A5.559,5.559,0,0,0,3.642,45.745Z" transform="translate(-0.657 -8.716)"/><path class="c" d="M60.75,31.8H58.975v3.55H57.2v1.775h1.775V38.9h1.291c.161-.645.4-1.21.565-1.775V35.35h.4a16.7,16.7,0,0,0,.323-1.775H60.83V31.8Z" transform="translate(-11.055 -6.146)"/><path class="c" d="M36.2,84.8l.081,2.743c.161-.323.4-.645.565-.968h0c.323-.565.726-1.129,1.129-1.775H36.2Z" transform="translate(-6.996 -16.389)"/><path class="c" d="M44.048,66.55v1.775H42.273v-3.55H40.5V63H35.9l.081,3.63h1.049v1.775h3.55V70.18h-4.6l.081,5h.726v1.775H40.1l.242-.484V75.1h.807a14.034,14.034,0,0,1,.887-1.452H36.949V71.874H43.08c.968-1.694,2.017-3.55,3.066-5.405h-2.1Z" transform="translate(-6.938 -12.176)"/><path class="c" d="M14.294,38.075h0v-.081l-.242-.726c0-.081,0-.081-.081-.161a5.56,5.56,0,0,0-.242-.645c0-.081,0-.081-.081-.161H12.6v1.775Z" transform="translate(-2.435 -7.016)"/><path class="c" d="M23.375,47.9h0v3.227H21.6v3.63h4.518V52.982H25.15v-3.63H26.2v-.4h0a2.866,2.866,0,0,0-.807-.161A21.929,21.929,0,0,0,23.375,47.9Z" transform="translate(-4.175 -9.257)"/><path class="c" d="M4.76,29.117h3.55v1.775h1.775v1.775h.726v-.323a.727.727,0,0,0-.081-.4c0-.4-.081-.726-.081-1.129v-.242h0v-.807c0-.161.081-.807.081-.807.081-.4.081-.807.161-1.21a.61.61,0,0,1,.081-.323.61.61,0,0,1,.081-.323H.242A26.912,26.912,0,0,0,0,30.569v.323H2.985V29.117H4.76Z" transform="translate(0 -5.238)"/><path class="c" d="M21.075,60.275h3.63V58.5H19.3v1.775Z" transform="translate(-3.73 -11.306)"/><path class="c" d="M11.17,51.375H9.4V49.6H5.2c.242.565.565,1.21.807,1.775H7.54V53.15H6.894c.807,1.775,1.775,3.63,2.662,5.405h3.388v6.373c1.533,2.662,2.985,5.244,4.437,7.664h.887v1.533a.419.419,0,0,1,.161.323h3.388V72.673h.645l.081-3.227H21.98V67.671h.645V65.9H21.98V64.121h.726l.081-3.227v-.4H18.43v3.55h1.775v3.55H18.43v-3.55H16.656v3.55H14.881V62.266h1.775v-3.63H14.881V56.861h1.775V55.086h-3.55v1.775H9.556V55.086h3.55V53.311H11.331V51.375Zm7.18,17.99h1.775V71.14H18.35Z" transform="translate(-1.005 -9.586)"/><path class="c" d="M25.61,83.95H24.4c.4.645.807,1.21,1.129,1.775h.081v.161c.161.242.323.565.484.807l.161-6.293H25.61v3.55Z" transform="translate(-4.716 -15.539)"/><path class="c" d="M52.987,46.55h0v1.775H47.662V46.55h1.775V44.775H47.662V43H45.888v1.775H43.951V46.55h1.775v1.775H42.1V44.291a14.026,14.026,0,0,1-1.21,1.049,2.451,2.451,0,0,1-.565.4v.807h-1.21a2.982,2.982,0,0,1-.887.4,8.583,8.583,0,0,1-2.017.726c-.242.081-.565.161-.807.242v.484h3.227V53.81H35.642l.081,3.63h6.535V53.81h7.18v1.775h.484c.323-.565.565-1.21.887-1.775H49.437V52.035H47.662V50.261H52.5c.161-.4.323-.726.484-1.129v-.645h.323c.242-.645.565-1.21.807-1.856.242-.565.484-1.129.726-1.775H53.067V46.55Zm-7.18,5.405h-3.63V50.18h3.63Z" transform="translate(-6.842 -8.31)"/><path class="c" d="M56.755,42.475H54.9V44.25h1.855V42.475H58.53V40.7H56.755Z" transform="translate(-10.61 -7.866)"/><path class="c" d="M54.9,54.081v.887h0L55.384,54H54.9Z" transform="translate(-10.61 -10.436)"/><path class="c" d="M48.049,37.9A19.312,19.312,0,0,1,47,40.159h2.824V38.384H48.049V37.9Z" transform="translate(-9.083 -7.325)"/><path class="c" d="M12.426,64.291V63H11.7A6.674,6.674,0,0,1,12.426,64.291Z" transform="translate(-2.261 -12.176)"/><path class="c" d="M47.855,58.5H46v5.405h3.066c.807-1.452,1.613-2.985,2.34-4.437V58.5h-3.55Zm1.775,3.63H47.855V60.355H49.63Z" transform="translate(-8.89 -11.306)"/><path class="c" d="M36.791,51.8H35.5a2.234,2.234,0,0,1,.081.726v1.049h1.21Z" transform="translate(-6.861 -10.011)"/><path class="c" d="M59.4,44.675c.242-.565.4-1.129.645-1.775H59.4Z" transform="translate(-11.48 -8.291)"/><path class="c" d="M53.74,34.5V30.95h1.775V29.175h4.437a13.193,13.193,0,0,0-.161-1.775H48.981c.081.242.081.484.161.807s.081.645.161,1.049h2.662v3.469H50.191V30.95h-.807a6.106,6.106,0,0,1-.081,1.21,15.057,15.057,0,0,1-.323,2.017c0,.081-.081.242-.081.323h3.146v3.55H55.6V36.274H53.821V34.5Z" transform="translate(-9.451 -5.295)"/><path class="c" d="M17.383,44.385h-3.55V42.61h2.017c-.242-.242-.242-.161-.484-.4-.081-.081-.323-.4-.4-.4h0c-.323-.323-.565-.645-.807-.887l-1.21-1.694c-.081-.081-.645-1.129-.887-1.613h0a.079.079,0,0,0-.081-.081h0v1.21H10.2v1.775h3.55v2.1H8.429V40.835H6.654V39.061H8.429v-3.55H10.2V33.575H8.429V31.8H3.024v3.55H1.249V33.575H.2a22.9,22.9,0,0,0,.807,3.63H4.8v-3.63H6.573v3.55H4.8V38.9H1.491a15.692,15.692,0,0,0,.645,1.775h.887v1.775H4.8v1.775h7.1V46H10.123v1.775H11.9v1.775h1.775V47.773h3.55V44.385Z" transform="translate(-0.039 -6.146)"/></g></g></svg>